<mxfile host="65bd71144e">
    <diagram id="ao12QJp7JULRtUUFcC86" name="Page-1">
        <mxGraphModel dx="696" dy="477" grid="1" gridSize="10" guides="1" tooltips="1" connect="1" arrows="1" fold="1" page="1" pageScale="1" pageWidth="850" pageHeight="1100" math="0" shadow="0">
            <root>
                <mxCell id="0"/>
                <mxCell id="1" parent="0"/>
                <mxCell id="2" value="" style="rounded=0;whiteSpace=wrap;html=1;" vertex="1" parent="1">
                    <mxGeometry x="120" y="80" width="80" height="40" as="geometry"/>
                </mxCell>
                <mxCell id="3" value="" style="rounded=1;whiteSpace=wrap;html=1;shadow=0;arcSize=0;" vertex="1" parent="1">
                    <mxGeometry x="250" y="80" width="70" height="40" as="geometry"/>
                </mxCell>
                <mxCell id="4" value="" style="shape=singleArrow;whiteSpace=wrap;html=1;shadow=0;" vertex="1" parent="1">
                    <mxGeometry x="200" y="90" width="50" height="20" as="geometry"/>
                </mxCell>
                <mxCell id="5" value="" style="edgeStyle=none;html=1;" edge="1" parent="1" source="2" target="4">
                    <mxGeometry relative="1" as="geometry"/>
                </mxCell>
            </root>
        </mxGraphModel>
    </diagram>
</mxfile>